Jackass.Number.Two.2006.720p.HDTV.x264-CtrlHD

IMDB: http://www.imdb.com/title/tt0493430/
Screenshots: http://bayimg.com/hAKMkAaDh

-- General --
Format                           : Matroska
File size                        : 4.00 GiB
Duration                         : 1h 28mn
Overall bit rate                 : 6 492 Kbps
Encoded date                     : UTC 2008-05-12 18:16:36
Writing application              : mkvmerge v2.1.0 (\'Another Place To Fall\') built on Aug 19 2007 13:40:07
Writing library                  : libebml v0.7.7 + libmatroska v0.8.1

-- Video --
ID                               : 1
Format                           : AVC
Format/Info                      : Advanced Video Codec
Format profile                   : High@L4.1
Format settings, CABAC           : Yes
Format settings, ReFrames        : 6 frames
Codec ID                         : V_MPEG4/ISO/AVC
Duration                         : 1h 28mn
Bit rate                         : 6 078 Kbps
Width                            : 1 280 pixels
Height                           : 720 pixels
Display aspect ratio             : 16:9
Frame rate                       : 25.000 fps
Color space                      : YUV
Chroma subsampling               : 4:2:0
Bit depth                        : 8 bits
Scan type                        : Progressive
Bits/(Pixel*Frame)               : 0.264
Stream size                      : 3.68 GiB (92%)
Title                            : Jackass Number Two (2006)
Writing library                  : x264 core 58 svn-736M
Language                         : English

-- Audio --
ID                               : 2
Format                           : AC-3
Format/Info                      : Audio Coding 3
Mode extension                   : CM (complete main)
Codec ID                         : A_AC3
Duration                         : 1h 28mn
Bit rate mode                    : Constant
Bit rate                         : 384 Kbps
Channel(s)                       : 2 channels
Channel positions                : Front: L R
Sampling rate                    : 48.0 KHz
Bit depth                        : 16 bits
Compression mode                 : Lossy
Delay relative to video          : 9ms
Stream size                      : 242 MiB (6%)
Title                            : AC3 5.1 384kbps
Language                         : English